<svg height="512" viewBox="0 0 58 58" width="512" xmlns="http://www.w3.org/2000/svg"><g id="Page-1" fill="none" fill-rule="evenodd"><g id="039---Calculator" fill-rule="nonzero"><path id="Shape" d="m18 58c-1.6568542 0-3-1.3431458-3-3v-52c0-1.65685425 1.3431458-3 3-3h37c1.6568542 0 3 1.34314575 3 3v52c0 1.6568542-1.3431458 3-3 3z" fill="#955ba5"/><path id="Shape" d="m34 4h19c.5522847 0 1 .44771525 1 1v8c0 .5522847-.4477153 1-1 1h-33c-.5522847 0-1-.4477153-1-1v-8c0-.55228475.4477153-1 1-1z" fill="#2fa8cc"/><g fill="#b49aca"><path id="Shape" d="m24 45h28c1.1032019.0032948 1.9967052.8967981 2 2v5c-.0032948 1.1032019-.8967981 1.9967052-2 2h-28z"/><rect id="Rectangle-path" height="9" rx="2" width="9" x="45" y="32"/><rect id="Rectangle-path" height="9" rx="2" width="9" x="45" y="19"/><rect id="Rectangle-path" height="9" rx="2" width="9" x="32" y="32"/><rect id="Rectangle-path" height="9" rx="2" width="9" x="32" y="19"/><rect id="Rectangle-path" height="9" rx="2" width="9" x="19" y="19"/></g><path id="Shape" d="m43 14 7-10h-6l-7 10z" fill="#67b9cc"/><circle id="Oval" cx="17" cy="41" fill="#f0c419" r="17"/><path id="Shape" d="m18 40.056v-8.988c2.833.358 5 2.207 5 4.432 0 .5522847.4477153 1 1 1s1-.4477153 1-1c0-3.308-3.06-6.042-7-6.444v-1.056c0-.5522847-.4477153-1-1-1s-1 .4477153-1 1v1.056c-3.94.4-7 3.136-7 6.444s3.06 6.042 7 6.444v8.988c-2.833-.358-5-2.207-5-4.432 0-.5522847-.4477153-1-1-1-.55228475 0-1 .4477153-1 1 0 3.308 3.06 6.042 7 6.444v1.056c0 .5522847.4477153 1 1 1s1-.4477153 1-1v-1.056c3.94-.4 7-3.136 7-6.444s-3.06-6.042-7-6.444zm-7-4.556c0-2.225 2.167-4.074 5-4.432v8.864c-2.833-.358-5-2.207-5-4.432zm7 15.432v-8.864c2.833.358 5 2.207 5 4.432s-2.167 4.074-5 4.432z" fill="#e57e25"/></g></g></svg>